<svg
            version="1.0"
            xmlns="http://www.w3.org/2000/svg"
            width="512.000000pt"
            height="512.000000pt"
            viewBox="0 0 512.000000 512.000000"
            preserveAspectRatio="xMidYMid meet"
          >
            <g transform="translate(0.000000,512.000000) scale(0.100000,-0.100000)" fill="#FFFFFF" stroke="none">
              <path
                d="M592 2999 l3 -2121 983 -439 983 -439 982 438 982 439 3 2122 2 2121
-1970 0 -1970 0 2 -2121z m3636 -50 c2 -1486 -1 -1869 -10 -1876 -7 -6 -383
-175 -835 -377 l-822 -367 -823 367 c-453 202 -829 372 -835 377 -10 7 -13
394 -13 1872 0 1024 3 1865 7 1868 3 4 754 6 1667 5 l1661 -3 3 -1866z"
              />
              <path
                d="M1460 4200 l0 -150 140 0 140 0 2 -512 3 -513 150 0 150 0 3 513 2
512 140 0 140 0 0 150 0 150 -435 0 -435 0 0 -150z"
              />
              <path
                d="M2948 4340 c-146 -26 -248 -81 -359 -190 -71 -70 -94 -100 -127 -170
-94 -196 -94 -394 0 -590 33 -69 57 -101 127 -171 70 -70 102 -94 171 -127
416 -200 887 53 951 510 52 376 -241 725 -624 743 -51 2 -113 0 -139 -5z m180
-300 c115 -27 204 -99 255 -208 28 -58 32 -77 31 -147 -1 -175 -108 -310 -278
-352 -211 -52 -422 102 -443 322 -7 79 22 180 72 247 81 110 233 168 363 138z"
              />
              <path
                d="M3085 2733 c-372 -59 -629 -393 -575 -749 67 -443 538 -700 935 -510
147 70 251 174 322 321 47 100 66 199 60 315 -10 174 -68 301 -197 430 -92 93
-180 145 -295 175 -64 16 -200 26 -250 18z m205 -318 c107 -36 207 -151 231
-263 65 -317 -280 -554 -553 -380 -119 75 -185 227 -158 362 45 227 262 353
480 281z"
              />
              <path
                d="M1352 2073 l3 -648 254 4 c278 3 325 10 420 62 138 74 249 232 286
405 20 92 19 277 -1 367 -51 230 -212 404 -412 446 -30 6 -159 11 -303 11
l-249 0 2 -647z m523 328 c55 -25 93 -66 124 -131 21 -46 26 -73 29 -167 5
-138 -17 -225 -73 -290 -54 -64 -104 -83 -213 -83 l-92 0 0 345 0 345 93 0
c68 0 103 -5 132 -19z"
              />
            </g>
          </svg>